<svg width="41" height="40" viewBox="0 0 41 40" fill="none" xmlns="http://www.w3.org/2000/svg">
<rect x="0.5" width="40" height="40" rx="20" fill="#065E7C"/>
<path fill-rule="evenodd" clip-rule="evenodd" d="M15 15V20H17V15H15ZM18.5 15V20.5729L20.6761 24.9251C20.8466 24.8633 21.0032 24.7646 21.1339 24.6339C21.3683 24.3995 21.5 24.0815 21.5 23.75V22.25C21.5 21.8358 21.8358 21.5 22.25 21.5H26.1187L26.1206 21.5C26.1554 21.5001 26.1898 21.4927 26.2215 21.4784C26.2532 21.4641 26.2815 21.4432 26.3044 21.4171C26.3273 21.3909 26.3444 21.3602 26.3545 21.3269C26.3646 21.2936 26.3674 21.2585 26.3628 21.2241L26.362 21.218L25.6121 15.2187C25.6045 15.1585 25.5753 15.1031 25.5299 15.0629C25.4848 15.0229 25.4267 15.0006 25.3664 15H18.5ZM17.2865 21.5H14.75C14.4185 21.5 14.1005 21.3683 13.8661 21.1339C13.6317 20.8995 13.5 20.5815 13.5 20.25V14.75C13.5 14.4185 13.6317 14.1005 13.8661 13.8661C14.1005 13.6317 14.4185 13.5 14.75 13.5H25.3687L25.3722 13.5C25.7971 13.502 26.2067 13.6584 26.5247 13.9402C26.8426 14.2219 27.0473 14.6097 27.1004 15.0313L27.1005 15.032L27.8501 21.0293C27.8824 21.2748 27.8619 21.5244 27.7902 21.7615C27.7181 21.9996 27.5958 22.2196 27.4317 22.4066C27.2676 22.5936 27.0653 22.7433 26.8385 22.8456C26.6121 22.9478 26.3665 23.0004 26.1181 23H23V23.75C23 24.4793 22.7103 25.1788 22.1945 25.6945C21.6788 26.2103 20.9793 26.5 20.25 26.5C19.9659 26.5 19.7062 26.3395 19.5792 26.0854L17.2865 21.5Z" fill="white"/>
</svg>
