<svg width="41" height="40" viewBox="0 0 41 40" fill="none" xmlns="http://www.w3.org/2000/svg">
<rect x="0.5" width="40" height="40" rx="20" fill="#065E7C"/>
<path fill-rule="evenodd" clip-rule="evenodd" d="M19.5792 13.9146C19.7062 13.6605 19.9659 13.5 20.25 13.5C20.9793 13.5 21.6788 13.7897 22.1945 14.3055C22.7103 14.8212 23 15.5207 23 16.25V17H26.1179C26.3664 16.9995 26.6121 17.0522 26.8385 17.1544C27.0653 17.2567 27.2676 17.4064 27.4317 17.5934C27.5958 17.7804 27.7181 18.0004 27.7902 18.2385C27.8619 18.4756 27.8824 18.7252 27.8501 18.9707L27.1004 24.9687C27.0473 25.3903 26.8426 25.7781 26.5247 26.0598C26.2067 26.3416 25.7971 26.498 25.3722 26.5L25.3687 26.5H14.75C14.4185 26.5 14.1005 26.3683 13.8661 26.1339C13.6317 25.8995 13.5 25.5815 13.5 25.25V19.75C13.5 19.4185 13.6317 19.1005 13.8661 18.8661C14.1005 18.6317 14.4185 18.5 14.75 18.5H17.2865L19.5792 13.9146ZM17 20H15V25H17V20ZM18.5 25H25.3664C25.4267 24.9995 25.4847 24.9771 25.5299 24.9371C25.5753 24.8969 25.6045 24.8415 25.6121 24.7813L26.362 18.782L26.3628 18.7759C26.3674 18.7415 26.3646 18.7064 26.3545 18.6731C26.3444 18.6398 26.3273 18.6091 26.3044 18.5829C26.2815 18.5568 26.2532 18.5359 26.2215 18.5216C26.1898 18.5073 26.1554 18.4999 26.1206 18.5L26.1187 18.5H22.25C21.8358 18.5 21.5 18.1642 21.5 17.75V16.25C21.5 15.9185 21.3683 15.6005 21.1339 15.3661C21.0032 15.2354 20.8466 15.1367 20.6761 15.0749L18.5 19.4271V25Z" fill="white"/>
</svg>
