<svg width="41" height="40" viewBox="0 0 41 40" fill="none" xmlns="http://www.w3.org/2000/svg">
<rect x="0.5" width="40" height="40" rx="20" fill="#F4FCFF"/>
<path d="M32.2209 16.3365C31.9434 15.6769 31.4823 15.2013 30.8872 14.9618L30.8792 14.9588C30.6084 14.8527 30.32 14.7984 30.0291 14.7988H29.9971C28.6349 14.8193 27.2442 15.9769 26.5371 17.6797C26.0185 18.9248 25.959 20.264 26.3781 21.2622C26.6551 21.9222 27.1172 22.3978 27.7148 22.6373L27.7213 22.6398C27.9922 22.7459 28.2805 22.8001 28.5714 22.7999C29.9466 22.7999 31.3518 21.6422 32.0719 19.917C32.584 18.6733 32.6405 17.3351 32.2209 16.3365Z" fill="#387E96"/>
<path d="M26.7781 23.6805C25.9925 23.2084 25.2499 22.7619 24.7649 21.9598C23.4267 19.7394 22.6186 18.3993 20.4998 18.3993C18.381 18.3993 17.5709 19.7394 16.2297 21.9598C15.7436 22.7629 14.9995 23.2099 14.2114 23.684C13.3078 24.2271 12.3742 24.7881 11.9711 25.8923C11.8144 26.2903 11.7355 26.7147 11.7386 27.1425C11.7386 28.9402 13.1388 30.4029 14.859 30.4029C15.7466 30.4029 16.6913 30.0954 17.6909 29.7698C18.652 29.4568 19.6457 29.1332 20.5048 29.1332C21.3639 29.1332 22.355 29.4568 23.3127 29.7698C24.3103 30.0934 25.2504 30.4009 26.1406 30.4009C27.8583 30.4009 29.256 28.9382 29.256 27.1405C29.2574 26.7124 29.1768 26.288 29.0185 25.8903C28.6154 24.7851 27.6813 24.2236 26.7781 23.6805Z" fill="#387E96"/>
<path d="M15.1991 16.6415C15.7941 17.3881 16.5492 17.7992 17.3253 17.7992C17.4313 17.7992 17.5371 17.7913 17.6419 17.7757C19.2606 17.5376 20.2693 15.5624 19.9382 13.2751C19.7997 12.3134 19.4296 11.4178 18.8996 10.7537C18.3055 10.0086 17.5494 9.59805 16.7738 9.59805C16.6678 9.59805 16.562 9.60591 16.4572 9.62155C14.8385 9.85958 13.8299 11.8349 14.1609 14.1222C14.2989 15.0823 14.669 15.9769 15.1991 16.6415Z" fill="#387E96"/>
<path d="M23.3582 17.7757C23.463 17.7913 23.5688 17.7992 23.6747 17.7992C24.4513 17.7992 25.2059 17.3881 25.801 16.6415C26.3306 15.9769 26.6986 15.0823 26.8387 14.1212C27.1697 11.8349 26.1611 9.85958 24.5423 9.62055C24.4376 9.60491 24.3317 9.59705 24.2258 9.59705C23.4502 9.59805 22.6941 10.0086 22.1 10.7537C21.5699 11.4178 21.1999 12.3134 21.0619 13.2761C20.7308 15.5624 21.7395 17.5376 23.3582 17.7757Z" fill="#387E96"/>
<path d="M13.2783 22.6398L13.2853 22.6373C13.8819 22.3978 14.3434 21.9227 14.62 21.2632C15.039 20.263 14.98 18.9253 14.4624 17.6802C13.7459 15.9569 12.3412 14.7988 10.9675 14.7988C10.6766 14.7983 10.3882 14.8526 10.1173 14.9588L10.1103 14.9613C9.51527 15.1988 9.0537 15.6759 8.77716 16.3355C8.35811 17.3356 8.41711 18.6733 8.93469 19.9185C9.65128 21.6417 11.056 22.7999 12.4297 22.7999C12.7201 22.8001 13.0079 22.7458 13.2783 22.6398Z" fill="#387E96"/>
</svg>
